HIERARCHY
ROOT Hips
{
	OFFSET 48.130001 -17.162916 95.103897
	CHANNELS 6 Xposition Yposition Zposition Xrotation Yrotation Zrotation
	JOINT spine
	{
		OFFSET 0.000000 -0.458069 7.965683
		CHANNELS 3 Xrotation Yrotation Zrotation
		JOINT spine1
		{
			OFFSET 0.000000 -0.000002 10.243103
			CHANNELS 3 Xrotation Yrotation Zrotation
			JOINT spine2
			{
				OFFSET 0.000000 -0.000002 9.814751
				CHANNELS 3 Xrotation Yrotation Zrotation
				JOINT Neck
				{
					OFFSET 0.000000 -1.201384 25.198601
					CHANNELS 3 Xrotation Yrotation Zrotation
					JOINT Head
					{
						OFFSET 0.000000 0.000000 7.613144
						CHANNELS 3 Xrotation Yrotation Zrotation
						End Site
						{
							OFFSET 0.000000 6.077316 18.428101
						}
					}
				}
				JOINT RightShoulder
				{
					OFFSET -4.132702 0.575451 10.599205
					CHANNELS 3 Xrotation Yrotation Zrotation
					JOINT RightArm
					{
						OFFSET 0.000000 -0.000004 13.901794
						CHANNELS 3 Xrotation Yrotation Zrotation
						JOINT RightArmRoll
						{
							OFFSET 0.000000 0.000000 7.017883
							CHANNELS 3 Xrotation Yrotation Zrotation
							JOINT RightForeArm
							{
								OFFSET 0.000000 -0.000004 20.440598
								CHANNELS 3 Xrotation Yrotation Zrotation
								JOINT RightForeArmRoll
								{
									OFFSET 0.000000 -0.000002 7.875153
									CHANNELS 3 Xrotation Yrotation Zrotation
									JOINT RightHand
									{
										OFFSET 0.000000 -0.000002 15.803696
										CHANNELS 3 Xrotation Yrotation Zrotation
										End Site
										{
											OFFSET 0.000000 0.000000 0.100006
										}
									}
								}
							}
						}
					}
				}
				JOINT LeftShoulder
				{
					OFFSET 4.132702 0.575451 10.599205
					CHANNELS 3 Xrotation Yrotation Zrotation
					JOINT LeftArm
					{
						OFFSET 0.000000 -0.000004 13.901794
						CHANNELS 3 Xrotation Yrotation Zrotation
						JOINT LeftArmRoll
						{
							OFFSET 0.000000 0.000000 7.017883
							CHANNELS 3 Xrotation Yrotation Zrotation
							JOINT LeftForeArm
							{
								OFFSET 0.000000 -0.000004 20.440598
								CHANNELS 3 Xrotation Yrotation Zrotation
								JOINT LeftForeArmRoll
								{
									OFFSET 0.000000 -0.000002 7.875153
									CHANNELS 3 Xrotation Yrotation Zrotation
									JOINT LeftHand
									{
										OFFSET 0.000000 -0.000002 15.803696
										CHANNELS 3 Xrotation Yrotation Zrotation
										End Site
										{
											OFFSET 0.000000 0.000000 0.100006
										}
									}
								}
							}
						}
					}
				}
			}
		}
	}
	JOINT RightUpLeg
	{
		OFFSET -7.060482 1.086100 -1.294701
		CHANNELS 3 Xrotation Yrotation Zrotation
		JOINT RightUpLegRoll
		{
			OFFSET 0.000000 -0.000004 18.530800
			CHANNELS 3 Xrotation Yrotation Zrotation
			JOINT RightLeg
			{
				OFFSET 0.000000 0.000004 -22.947601
				CHANNELS 3 Xrotation Yrotation Zrotation
				JOINT RightLegRoll
				{
					OFFSET 0.000000 -0.000004 23.022598
					CHANNELS 3 Xrotation Yrotation Zrotation
					JOINT RightFoot
					{
						OFFSET 0.000000 -0.000002 19.162506
						CHANNELS 3 Xrotation Yrotation Zrotation
						JOINT RightToeBase
						{
							OFFSET 0.000000 -0.000004 16.018799
							CHANNELS 3 Xrotation Yrotation Zrotation
							End Site
							{
								OFFSET 0.006790 0.894205 7.757828
							}
						}
					}
				}
			}
		}
	}
	JOINT LeftUpLeg
	{
		OFFSET 7.060482 1.086100 -1.294701
		CHANNELS 3 Xrotation Yrotation Zrotation
		JOINT LeftUpLegRoll
		{
			OFFSET 0.000000 -0.000004 18.530899
			CHANNELS 3 Xrotation Yrotation Zrotation
			JOINT LeftLeg
			{
				OFFSET 0.000000 -0.000004 22.947502
				CHANNELS 3 Xrotation Yrotation Zrotation
				JOINT LeftLegRoll
				{
					OFFSET 0.000000 -0.000004 23.235504
					CHANNELS 3 Xrotation Yrotation Zrotation
					JOINT LeftFoot
					{
						OFFSET 0.000000 -0.000002 18.949600
						CHANNELS 3 Xrotation Yrotation Zrotation
						JOINT LeftToeBase
						{
							OFFSET 0.000000 -0.000004 16.018799
							CHANNELS 3 Xrotation Yrotation Zrotation
							End Site
							{
								OFFSET -0.030430 0.894206 7.757828
							}
						}
					}
				}
			}
		}
	}
}
MOTION
Frames: 13
Frame Time: 0.041667
49.929600 -15.728314 95.612289 -1.334095 1.768691 2.489054 -1.911490 -0.459527 -0.033315 0.178268 -0.904967 -0.072885 1.823418 -0.905829 -0.062030 20.695342 -0.561500 -1.093473 -2.992626 0.192730 -1.123554 -3.592183 -69.367169 -5.253182 -60.009195 -111.708331 -37.764061 -0.000004 -0.000005 -0.000000 0.036024 -4.431852 -0.107494 -0.000007 0.000003 -3.008971 -5.000190 -7.999512 0.000066 -0.143930 69.571146 1.446432 -53.594070 110.313286 29.859685 0.000001 -0.000001 -0.000003 4.512802 1.259326 -0.475655 0.000002 -0.000010 3.003090 -5.000185 7.999979 -0.000028 2.336161 -177.380177 -2.800438 -179.999991 0.000005 -1.166004 175.739948 -2.314596 -0.591365 -0.000003 0.000000 0.050016 68.989261 6.973536 1.902389 25.629614 -7.352655 0.257630 -0.813022 172.067792 -1.043693 -0.000005 -0.000004 -1.180550 -10.141346 2.256523 0.484980 -0.000004 -0.000003 -0.246163 72.139939 -6.898071 -1.876794 25.542073 7.345215 -0.118910 
49.929596 -15.727316 95.616692 -1.333877 1.768491 2.488283 -1.911303 -0.459507 -0.033387 0.177667 -0.905923 -0.073321 1.822818 -0.906782 -0.062455 20.696602 -0.551784 -1.094020 -2.980252 0.182109 -1.123109 -3.566555 -69.362087 -5.224204 -59.990043 -111.705907 -37.745876 0.000001 -0.000005 -0.000000 0.036070 -4.433212 -0.107556 -0.000004 0.000004 -3.008970 -5.000192 -7.999512 0.000066 -0.146244 69.568345 1.448508 -53.579819 110.314761 29.848330 0.000003 -0.000002 -0.000003 4.511728 1.261881 -0.475647 0.000001 -0.000009 3.003088 -5.000188 7.999979 -0.000029 2.336228 -177.381188 -2.794506 -179.999991 0.000005 -1.166003 175.735467 -2.322553 -0.591143 -0.000003 0.000000 0.050016 68.987786 6.973527 1.902982 25.637595 -7.352668 0.269458 -0.819322 172.064801 -1.046542 -0.000004 -0.000004 -1.180550 -10.156770 2.258166 0.485833 -0.000003 -0.000003 -0.246546 72.150375 -6.898086 -1.876852 25.541161 7.345206 -0.118012 
49.927498 -15.725416 95.621201 -1.333595 1.768321 2.487490 -1.911132 -0.459474 -0.033455 0.177013 -0.906890 -0.073772 1.822168 -0.907748 -0.062894 20.697567 -0.541735 -1.094496 -2.967302 0.170955 -1.122549 -3.539901 -69.356931 -5.194078 -59.968118 -111.703646 -37.725583 -0.000002 -0.000005 0.000001 0.036118 -4.435409 -0.107532 -0.000003 0.000004 -3.008970 -5.000189 -7.999512 0.000067 -0.148859 69.565736 1.450935 -53.568094 110.315799 29.839416 0.000002 -0.000003 -0.000002 4.509652 1.264205 -0.475638 -0.000000 -0.000009 3.003091 -5.000185 7.999979 -0.000030 2.336269 -177.381174 -2.788293 -179.999991 0.000005 -1.166003 175.730782 -2.331515 -0.591005 -0.000003 0.000001 0.050016 68.986304 6.973519 1.903474 25.645880 -7.352686 0.281877 -0.826141 172.062806 -1.049601 -0.000004 -0.000004 -1.180550 -10.172995 2.259981 0.486735 -0.000003 -0.000003 -0.246943 72.161352 -6.898106 -1.876776 25.540155 7.345214 -0.117048 
49.923603 -15.728116 95.590302 -1.333265 1.768181 2.486687 -1.910949 -0.459433 -0.033521 0.176321 -0.907866 -0.074233 1.821469 -0.908722 -0.063343 20.698530 -0.531453 -1.094930 -2.953952 0.159427 -1.121903 -3.512495 -69.351774 -5.163128 -59.947962 -111.700627 -37.707852 -0.000002 -0.000005 0.000002 0.036165 -4.438212 -0.107448 -0.000006 0.000004 -3.008972 -5.000189 -7.999512 0.000065 -0.151686 69.563339 1.453601 -53.554919 110.317746 29.828860 0.000003 -0.000003 -0.000003 4.506875 1.266365 -0.475624 -0.000001 -0.000010 3.003089 -5.000187 7.999979 -0.000029 2.336301 -177.381174 -2.781922 -179.999991 0.000005 -1.166003 175.725987 -2.341473 -0.590934 -0.000003 0.000000 0.050016 68.984617 6.973534 1.904084 25.654571 -7.352702 0.294738 -0.833331 172.059828 -1.052775 -0.000005 -0.000004 -1.180550 -10.189923 2.261910 0.487679 -0.000004 -0.000003 -0.247348 72.172737 -6.898105 -1.876775 25.539042 7.345216 -0.116036 
49.930401 -15.731115 95.599495 -1.332905 1.768042 2.485872 -1.910780 -0.459387 -0.033587 0.175606 -0.908847 -0.074701 1.820760 -0.909699 -0.063799 20.699395 -0.521037 -1.095326 -2.940361 0.147688 -1.121204 -3.484710 -69.346637 -5.131744 -59.925477 -111.698031 -37.688038 -0.000002 -0.000006 0.000001 0.036215 -4.441341 -0.107331 -0.000006 0.000004 -3.008969 -5.000189 -7.999512 0.000067 -0.154629 69.560935 1.456397 -53.544073 110.319187 29.820674 0.000000 -0.000002 -0.000004 4.503702 1.268433 -0.475611 -0.000000 -0.000009 3.003091 -5.000188 7.999979 -0.000029 2.336320 -177.381174 -2.775461 -179.999991 0.000005 -1.166004 175.721110 -2.350435 -0.590807 -0.000003 0.000000 0.050016 68.983025 6.973519 1.904579 25.663362 -7.352707 0.307819 -0.840736 172.056850 -1.056028 -0.000004 -0.000005 -1.180549 -10.207249 2.263892 0.488644 -0.000004 -0.000003 -0.247759 72.184349 -6.898088 -1.876853 25.537929 7.345214 -0.114990 
49.924805 -15.731316 95.586098 -1.332546 1.767912 2.485068 -1.910611 -0.459339 -0.033652 0.174886 -0.909829 -0.075169 1.820040 -0.910679 -0.064256 20.700261 -0.510589 -1.095725 -2.926719 0.135894 -1.120492 -3.456848 -69.341474 -5.100274 -59.905007 -111.694855 -37.670430 0.000002 -0.000005 0.000001 0.036265 -4.444560 -0.107204 -0.000006 0.000004 -3.008971 -5.000189 -7.999511 0.000066 -0.157602 69.558524 1.459231 -53.531075 110.321215 29.810197 0.000002 -0.000002 -0.000003 4.500433 1.270484 -0.475596 0.000002 -0.000009 3.003092 -5.000188 7.999979 -0.000030 2.336338 -177.382171 -2.769011 -179.999991 0.000005 -1.166004 175.716192 -2.360391 -0.591754 -0.000002 0.000000 0.050016 68.981338 6.973536 1.905191 25.672151 -7.352715 0.320962 -0.848193 172.053859 -1.059304 -0.000005 -0.000005 -1.180549 -10.224579 2.265905 0.489615 -0.000003 -0.000003 -0.248170 72.196076 -6.898093 -1.876832 25.536925 7.345212 -0.113962 
49.922600 -15.737818 95.584396 -1.332195 1.767772 2.484254 -1.910440 -0.459293 -0.033718 0.174177 -0.910808 -0.075635 1.819331 -0.911656 -0.064710 20.701122 -0.500206 -1.096130 -2.913192 0.124209 -1.119789 -3.429172 -69.336324 -5.069008 -59.882516 -111.692260 -37.650509 -0.000003 -0.000005 0.000000 0.036312 -4.447621 -0.107093 -0.000003 0.000004 -3.008971 -5.000191 -7.999512 0.000066 -0.160514 69.556031 1.461999 -53.520085 110.322568 29.801867 0.000001 -0.000003 -0.000004 4.497362 1.272581 -0.475582 0.000001 -0.000009 3.003091 -5.000184 7.999980 -0.000031 2.336369 -177.382185 -2.762570 -179.999991 0.000005 -1.166004 175.711357 -2.369354 -0.591629 -0.000003 0.000000 0.050016 68.979754 6.973519 1.905687 25.680833 -7.352717 0.333977 -0.855543 172.050881 -1.062544 -0.000005 -0.000005 -1.180550 -10.241807 2.267878 0.490579 -0.000004 -0.000002 -0.248580 72.207681 -6.898069 -1.876812 25.535813 7.345213 -0.112929 
49.923698 -15.738915 95.584496 -1.331874 1.767623 2.483461 -1.910271 -0.459255 -0.033785 0.173495 -0.911782 -0.076094 1.818651 -0.912628 -0.065156 20.701994 -0.489991 -1.096581 -2.899952 0.112789 -1.119147 -3.402046 -69.331140 -5.038365 -59.862455 -111.689350 -37.632775 -0.000001 -0.000005 0.000001 0.036358 -4.450241 -0.107027 -0.000005 0.000004 -3.008973 -5.000192 -7.999512 0.000066 -0.163278 69.553524 1.464594 -53.506722 110.324446 29.791134 0.000003 -0.000003 -0.000005 4.494787 1.274790 -0.475571 0.000001 -0.000008 3.003092 -5.000185 7.999980 -0.000030 2.336397 -177.382171 -2.756248 -179.999991 0.000005 -1.166004 175.706562 -2.379310 -0.591578 -0.000003 0.000000 0.050016 68.978156 6.973507 1.906283 25.689421 -7.352711 0.346701 -0.862631 172.048886 -1.065694 -0.000005 -0.000004 -1.180550 -10.258534 2.269765 0.491514 -0.000003 -0.000003 -0.248983 72.218985 -6.898083 -1.876815 25.534797 7.345211 -0.111929 
49.921997 -15.736917 95.579590 -1.331612 1.767443 2.482669 -1.910092 -0.459226 -0.033854 0.172858 -0.912745 -0.076540 1.818011 -0.913589 -0.065591 20.703162 -0.480042 -1.097079 -2.887179 0.101796 -1.118586 -3.375796 -69.326051 -5.008690 -59.842839 -111.686686 -37.614641 -0.000000 -0.000004 0.000002 0.036408 -4.452191 -0.107027 -0.000004 0.000004 -3.008970 -5.000191 -7.999511 0.000066 -0.165798 69.550922 1.466913 -53.495018 110.325491 29.782350 0.000000 -0.000002 -0.000003 4.493019 1.277185 -0.475561 0.000001 -0.000010 3.003090 -5.000186 7.999979 -0.000030 2.336445 -177.383168 -2.750156 -179.999991 0.000005 -1.166004 175.701945 -2.388273 -0.591447 -0.000003 0.000000 0.050016 68.976585 6.973528 1.906886 25.697600 -7.352708 0.358945 -0.869297 172.045908 -1.068677 -0.000005 -0.000005 -1.180550 -10.274559 2.271521 0.492410 -0.000004 -0.000003 -0.249375 72.229735 -6.898087 -1.876853 25.533790 7.345210 -0.110990 
49.925400 -15.744617 95.585594 -1.331426 1.767233 2.481908 -1.909904 -0.459211 -0.033927 0.172280 -0.913696 -0.076971 1.817441 -0.914538 -0.066010 20.704429 -0.470460 -1.097659 -2.875036 0.091389 -1.118161 -3.350690 -69.320929 -4.980296 -59.823796 -111.684364 -37.596162 -0.000000 -0.000004 0.000002 0.036454 -4.453210 -0.107127 -0.000006 0.000004 -3.008971 -5.000190 -7.999512 0.000067 -0.167986 69.548019 1.468841 -53.480429 110.326809 29.770670 0.000002 -0.000002 -0.000003 4.492342 1.279828 -0.475554 0.000001 -0.000009 3.003089 -5.000188 7.999979 -0.000031 2.336523 -177.383182 -2.744273 -179.999991 0.000005 -1.166004 175.697532 -2.396241 -0.591221 -0.000003 0.000000 0.050016 68.975102 6.973518 1.907380 25.705381 -7.352700 0.370534 -0.875384 172.043927 -1.071455 -0.000005 -0.000004 -1.180550 -10.289584 2.273105 0.493249 -0.000004 -0.000003 -0.249752 72.239960 -6.898107 -1.876824 25.532883 7.345209 -0.110118 
49.917995 -15.749419 95.595901 -1.331322 1.766973 2.481159 -1.909712 -0.459214 -0.034004 0.171779 -0.914629 -0.077382 1.816932 -0.915469 -0.066410 20.705899 -0.461344 -1.098331 -2.863707 0.081728 -1.117892 -3.327056 -69.315881 -4.953540 -59.805594 -111.682554 -37.577245 0.000001 -0.000006 0.000001 0.036498 -4.453031 -0.107345 -0.000005 0.000004 -3.008972 -5.000191 -7.999512 0.000067 -0.169753 69.544911 1.470283 -53.466929 110.327083 29.760490 0.000003 -0.000002 -0.000003 4.493060 1.282788 -0.475552 -0.000001 -0.000009 3.003091 -5.000185 7.999979 -0.000029 2.336635 -177.383168 -2.738708 -179.999991 0.000005 -1.166004 175.693352 -2.404197 -0.590997 -0.000003 0.000000 0.050016 68.973730 6.973517 1.907866 25.712553 -7.352690 0.381274 -0.880728 172.041933 -1.073974 -0.000004 -0.000005 -1.180549 -10.303305 2.274463 0.494015 -0.000004 -0.000003 -0.250111 72.249420 -6.898068 -1.876834 25.532068 7.345213 -0.109344 
49.916000 -15.746117 95.592003 -1.331333 1.766663 2.480441 -1.909510 -0.459238 -0.034086 0.171372 -0.915541 -0.077767 1.816533 -0.916379 -0.066783 20.707677 -0.452795 -1.099126 -2.853368 0.072973 -1.117823 -3.305212 -69.310799 -4.928773 -59.788266 -111.681256 -37.557742 -0.000001 -0.000005 -0.000001 0.036547 -4.451411 -0.107712 -0.000007 0.000004 -3.008972 -5.000191 -7.999512 0.000066 -0.171009 69.541619 1.471146 -53.452548 110.326953 29.749589 0.000002 -0.000002 -0.000002 4.495485 1.286133 -0.475552 0.000001 -0.000009 3.003090 -5.000186 7.999979 -0.000031 2.336779 -177.382171 -2.733510 -179.999991 0.000005 -1.166004 175.689514 -2.411174 -0.591685 -0.000002 0.000000 0.050017 68.972555 6.973489 1.908335 25.719111 -7.352676 0.390999 -0.885177 172.039939 -1.076157 -0.000004 -0.000004 -1.180550 -10.315422 2.275536 0.494688 -0.000004 -0.000003 -0.250447 72.257814 -6.898103 -1.876821 25.531365 7.345213 -0.108683 
49.917404 -15.753015 95.597786 -1.331473 1.766283 2.479767 -1.909290 -0.459288 -0.034173 0.171074 -0.916429 -0.078124 1.816233 -0.917266 -0.067129 20.709852 -0.444912 -1.100057 -2.844183 0.065283 -1.117986 -3.285470 -69.305861 -4.906356 -59.774120 -111.680047 -37.539720 -0.000000 -0.000005 0.000000 0.036584 -4.448091 -0.108254 -0.000005 0.000004 -3.008969 -5.000192 -7.999512 0.000067 -0.171661 69.537821 1.471304 -53.434547 110.326789 29.735324 0.000003 -0.000002 -0.000002 4.499905 1.289935 -0.475564 0.000001 -0.000008 3.003089 -5.000186 7.999979 -0.000032 2.336969 -177.382185 -2.728813 -179.999991 0.000005 -1.166004 175.686044 -2.417142 -0.591284 -0.000003 0.000000 0.050017 68.971407 6.973533 1.908715 25.724874 -7.352670 0.399539 -0.888573 172.037944 -1.077956 -0.000004 -0.000005 -1.180550 -10.325737 2.276288 0.495255 -0.000004 -0.000003 -0.250756 72.265136 -6.898087 -1.876766 25.530759 7.345212 -0.108147 
